<?xml version="1.0" standalone="no"?>
<!DOCTYPE svg PUBLIC "-//W3C//DTD SVG 20010904//EN"
 "http://www.w3.org/TR/2001/REC-SVG-20010904/DTD/svg10.dtd">
<svg version="1.0" xmlns="http://www.w3.org/2000/svg"
 width="512.000000pt" height="512.000000pt" viewBox="0 0 512.000000 512.000000"
 preserveAspectRatio="xMidYMid meet">

<g transform="translate(0.000000,512.000000) scale(0.100000,-0.100000)"
fill="#000000" stroke="none">
<path d="M1005 5109 c-192 -26 -328 -100 -388 -212 l-22 -42 -2 -1385 c-2
-1080 1 -1381 10 -1366 97 150 243 298 389 396 51 34 210 121 353 192 143 72
262 132 264 134 3 3 -11 18 -31 34 -52 43 -114 141 -139 219 -52 164 4 429 94
439 56 7 184 -104 241 -209 50 -91 70 -241 47 -341 -6 -23 -5 -38 1 -38 5 0
107 49 227 110 182 91 228 119 274 164 72 71 123 174 137 276 l11 75 -62 121
-63 122 -30 -9 c-71 -21 -218 -39 -316 -39 -470 0 -900 262 -1119 679 -60 115
-112 268 -114 332 -1 61 33 116 87 140 53 23 218 56 326 64 148 12 363 -22
511 -80 34 -14 65 -23 68 -20 9 10 -154 162 -198 184 -78 40 -183 60 -339 65
-81 3 -178 1 -217 -5z"/>
<path d="M3485 5109 c-193 -26 -337 -106 -386 -213 -18 -39 -19 -95 -19 -1258
0 -670 -3 -1218 -7 -1218 -5 0 -28 39 -53 88 -25 48 -132 255 -239 460 l-193
373 -41 -83 c-30 -60 -60 -101 -114 -154 -71 -71 -80 -77 -407 -241 l-335
-168 112 -200 c61 -110 331 -598 598 -1085 460 -836 486 -886 468 -899 -10 -7
-19 -23 -19 -34 0 -28 31 -137 39 -137 4 0 20 13 37 28 l31 28 43 -79 c59
-110 144 -198 234 -242 120 -59 179 -70 371 -70 147 0 181 3 248 23 143 41
244 109 290 197 21 37 22 56 25 292 l3 252 -27 48 c-15 26 -29 50 -31 52 -1 2
-31 -9 -65 -25 -59 -27 -71 -29 -188 -29 -123 0 -126 1 -200 36 -104 50 -162
104 -205 193 -49 99 -58 195 -26 294 64 198 253 300 441 237 107 -36 149 -106
95 -160 -30 -31 -44 -31 -103 0 -61 33 -100 39 -151 25 -133 -36 -194 -219
-115 -347 16 -25 51 -61 77 -79 149 -102 351 -65 457 84 l40 55 0 273 0 273
25 14 26 13 -26 24 c-24 23 -25 27 -25 159 l0 136 63 37 c154 90 360 270 479
417 287 356 437 830 399 1267 -25 286 -97 527 -225 753 -58 102 -103 153 -150
171 -16 6 -30 9 -30 8 -1 -2 -8 -28 -15 -58 -9 -36 -24 -66 -45 -86 -17 -17
-37 -40 -44 -50 -7 -11 -10 -12 -7 -4 6 13 4 13 -7 0 -7 -9 -26 -21 -43 -28
-16 -7 -46 -28 -65 -48 -30 -32 -36 -34 -46 -19 -7 9 -20 49 -29 88 -10 40
-19 74 -21 75 -5 6 -95 -58 -156 -110 l-58 -49 0 203 c0 249 -9 288 -78 357
-57 56 -129 94 -236 121 -94 24 -271 33 -371 19z m1065 -659 c0 -5 -5 -10 -11
-10 -5 0 -7 5 -4 10 3 6 8 10 11 10 2 0 4 -4 4 -10z m-30 -10 c0 -5 -5 -10
-11 -10 -5 0 -7 5 -4 10 3 6 8 10 11 10 2 0 4 -4 4 -10z m-288 -760 c41 -12
87 -47 118 -90 l20 -29 -25 -25 c-14 -14 -25 -31 -25 -38 0 -21 29 -58 46 -58
19 0 18 -31 -3 -74 -15 -33 -18 -34 -37 -20 -11 7 -35 14 -52 14 -43 0 -69
-31 -67 -81 1 -27 -2 -39 -12 -39 -8 0 -17 5 -20 10 -4 7 -12 7 -25 0 -28 -15
-30 -13 -30 32 0 24 -7 49 -17 60 -19 22 -70 24 -99 4 -19 -13 -22 -12 -36 12
-8 15 -18 38 -21 52 -5 22 -2 28 23 37 26 10 30 17 30 47 0 25 -6 38 -20 46
-28 15 -25 24 18 72 63 70 143 93 234 68z"/>
<path d="M4111 3614 c-12 -15 -21 -34 -21 -44 0 -31 39 -70 70 -70 62 0 96 74
55 120 -25 28 -43 25 -48 -7 l-4 -28 -2 28 c-1 35 -23 35 -50 1z"/>
<path d="M1804 4232 c16 -17 45 -37 65 -43 82 -27 138 -66 241 -170 38 -39 56
-49 112 -62 52 -12 84 -28 135 -67 61 -46 68 -49 82 -35 18 18 24 11 -65 74
-27 19 -54 36 -61 37 -17 3 -270 142 -318 175 -22 15 -81 48 -130 74 -88 47
-89 47 -61 17z"/>
<path d="M2476 3905 c-3 -9 0 -15 9 -15 9 0 12 6 9 15 -4 8 -7 15 -9 15 -2 0
-5 -7 -9 -15z"/>
<path d="M1523 2612 c-84 -42 -153 -79 -153 -82 0 -3 23 -16 51 -30 101 -48
202 -163 241 -274 l17 -51 1 258 c0 141 -1 257 -2 256 -2 0 -72 -35 -155 -77z"/>
<path d="M1055 2364 c-150 -103 -291 -269 -374 -439 -90 -183 -91 -189 -93
-616 -1 -206 -3 -357 -5 -336 -2 20 -7 37 -10 37 -3 0 -23 -14 -44 -31 l-38
-30 25 -67 c14 -37 35 -83 47 -102 21 -33 22 -50 27 -275 4 -212 7 -245 25
-280 30 -60 89 -113 168 -151 100 -47 174 -64 302 -71 124 -6 224 6 326 40 37
13 76 20 86 16 10 -3 34 -9 53 -13 l35 -6 16 60 16 61 -26 -23 c-14 -13 -10
-5 10 17 80 87 74 5 76 980 l1 870 -46 40 -46 40 32 -41 c18 -23 32 -45 32
-48 0 -3 -24 -6 -52 -6 -201 1 -388 140 -455 340 -12 35 -25 66 -30 67 -4 1
-30 -14 -58 -33z"/>
<path d="M1954 614 c14 -105 121 -252 229 -313 61 -34 146 -61 195 -61 34 0
182 56 182 69 0 8 -591 351 -605 351 -4 0 -5 -21 -1 -46z"/>
</g>
</svg>
